<svg width="159" height="163" viewBox="0 0 159 163" fill="none" xmlns="http://www.w3.org/2000/svg">
<ellipse cx="79.5" cy="81.2472" rx="79.5" ry="81.2472" fill="#D9D9D9"/>
<path d="M43.9919 40.2073L43.5119 40.3673L41.3839 37.2153H39.4319V47.8553L41.1119 48.4313L40.7919 49.0713H35.9279V48.5753L37.4319 47.3913V37.2153H35.5279L33.3999 40.3673L32.9199 40.2073V36.2073L33.7839 36.4953H43.1279L43.9919 36.2073V40.2073ZM49.6828 49.1033C49.2561 49.1886 48.7441 49.2313 48.1468 49.2313C47.4428 49.2313 46.8081 49.05 46.2428 48.6873C45.6881 48.314 45.2508 47.8126 44.9308 47.1833C44.6215 46.554 44.4668 45.8606 44.4668 45.1033C44.4668 44.282 44.7175 43.514 45.2188 42.7993C45.7201 42.074 46.3441 41.498 47.0908 41.0713C47.8481 40.634 48.5788 40.4153 49.2828 40.4153C50.2961 40.4153 51.0801 40.8153 51.6348 41.6153C52.2001 42.4153 52.4828 43.4713 52.4828 44.7833H46.5628C46.6268 45.69 46.8721 46.4313 47.2988 47.0073C47.7361 47.5833 48.3281 47.8713 49.0748 47.8713C49.7681 47.8713 50.7548 47.3326 52.0348 46.2553L52.5148 46.8633L49.6828 49.1033ZM48.3548 41.7593C47.2028 41.7593 46.6001 42.5486 46.5468 44.1273H50.2908C50.1948 43.5513 50.0935 43.114 49.9868 42.8153C49.8908 42.506 49.7148 42.2553 49.4588 42.0633C49.2135 41.8606 48.8455 41.7593 48.3548 41.7593ZM62.8441 49.0713H59.8041V47.6793L57.9961 49.1033C57.7827 49.1886 57.5161 49.2313 57.1961 49.2313C56.2787 49.2313 55.6121 49.002 55.1961 48.5433C54.7907 48.0846 54.5881 47.5353 54.5881 46.8953C54.5881 46.5113 54.7267 46.1326 55.0041 45.7593C55.2814 45.386 55.6761 45.034 56.1881 44.7033H59.8041V43.6793C59.8041 42.986 59.6174 42.4953 59.2441 42.2073C58.8814 41.9193 58.3801 41.7753 57.7401 41.7753C57.0787 41.7753 56.2681 42.1753 55.3081 42.9753L54.8281 42.3673L57.1321 40.5433C57.5587 40.458 58.0707 40.4153 58.6681 40.4153C59.6387 40.4153 60.3907 40.6553 60.9241 41.1353C61.4574 41.6046 61.7241 42.2926 61.7241 43.1993V47.8713L63.1641 48.4313L62.8441 49.0713ZM57.7081 47.8713C58.3587 47.8713 59.0574 47.5726 59.8041 46.9753V45.3593H56.9721C56.8334 45.53 56.7321 45.7006 56.6681 45.8713C56.6147 46.042 56.5881 46.2286 56.5881 46.4313C56.5881 46.826 56.6894 47.1673 56.8921 47.4553C57.0947 47.7326 57.3667 47.8713 57.7081 47.8713ZM79.4856 49.0713H76.4456V43.6793C76.4456 43.0926 76.3549 42.682 76.1736 42.4473C75.9922 42.2126 75.6669 42.0953 75.1976 42.0953C74.8669 42.0953 74.5416 42.1593 74.2216 42.2873C73.9016 42.4046 73.5229 42.6446 73.0856 43.0073V47.8713L74.5256 48.4313L74.2056 49.0713H71.1656V43.6793C71.1656 43.0926 71.0749 42.682 70.8936 42.4473C70.7122 42.2126 70.3869 42.0953 69.9176 42.0953C69.5869 42.0953 69.2616 42.1593 68.9416 42.2873C68.6216 42.4046 68.2429 42.6446 67.8056 43.0073V47.8713L69.2456 48.4313L68.9256 49.0713H64.4616V48.5753L65.8856 47.4553V42.9273L64.4616 42.0953V41.5993L67.1976 40.2553L67.7096 42.3033L69.8376 40.5273C70.0616 40.442 70.3549 40.3993 70.7176 40.3993C71.3362 40.3993 71.8482 40.57 72.2536 40.9113C72.6589 41.242 72.9149 41.7006 73.0216 42.2873L75.1016 40.5433C75.3256 40.458 75.6189 40.4153 75.9816 40.4153C76.7069 40.4153 77.2829 40.6393 77.7096 41.0873C78.1362 41.5246 78.3496 42.122 78.3496 42.8793V47.8713L79.8056 48.4313L79.4856 49.0713ZM43.9919 64.2073L43.5119 64.3673L41.3839 61.2153H39.4319V71.8553L41.1119 72.4313L40.7919 73.0713H35.9279V72.5753L37.4319 71.3913V61.2153H35.5279L33.3999 64.3673L32.9199 64.2073V60.2073L33.7839 60.4953H43.1279L43.9919 60.2073V64.2073ZM62.8404 62.0793L59.0004 72.5593L57.3364 73.3753L54.7924 65.8393L52.4084 72.5593L50.7444 73.3753L46.6324 62.0473L45.1124 61.1353L45.4324 60.4953H49.8164V60.9913L48.6484 61.8713L51.9764 71.2473L54.3604 64.5913L53.4964 62.0313L52.0244 61.1353L52.3444 60.4953H57.0484V60.9913L55.6244 62.0953L58.6004 71.2153L61.8964 62.0953L59.0484 61.1353L59.3684 60.4953H64.2324V60.9913L62.8404 62.0793ZM72.2374 60.1753C73.3681 60.1753 74.3654 60.4473 75.2294 60.9913C76.1041 61.5353 76.7814 62.2873 77.2614 63.2473C77.7414 64.2073 77.9814 65.2953 77.9814 66.5113C77.9814 67.7593 77.6188 68.9113 76.8934 69.9673C76.1681 71.0233 75.2668 71.8606 74.1894 72.4793C73.1121 73.0873 72.0828 73.3913 71.1014 73.3913C69.9708 73.3913 68.9681 73.1246 68.0934 72.5913C67.2294 72.0473 66.5574 71.2953 66.0774 70.3353C65.5974 69.3753 65.3574 68.2873 65.3574 67.0713C65.3574 65.8233 65.7201 64.6713 66.4454 63.6153C67.1708 62.5486 68.0721 61.7113 69.1494 61.1033C70.2268 60.4846 71.2561 60.1753 72.2374 60.1753ZM71.3094 61.5193C70.6054 61.5193 69.9601 61.7273 69.3734 62.1433C68.7974 62.5486 68.3441 63.1193 68.0134 63.8553C67.6828 64.5806 67.5174 65.3966 67.5174 66.3033C67.5174 67.3486 67.6828 68.3086 68.0134 69.1833C68.3441 70.0473 68.8454 70.7406 69.5174 71.2633C70.2001 71.786 71.0374 72.0473 72.0294 72.0473C72.7334 72.0473 73.3734 71.8446 73.9494 71.4393C74.5361 71.0233 74.9948 70.4526 75.3254 69.7273C75.6561 68.9913 75.8214 68.17 75.8214 67.2633C75.8214 66.2073 75.6561 65.2473 75.3254 64.3833C74.9948 63.5086 74.4934 62.8153 73.8214 62.3033C73.1494 61.7806 72.3121 61.5193 71.3094 61.5193Z" fill="#1B203D"/>
<path d="M79.0364 89.2171C79.8676 93.5377 80.0348 95.5321 80.9035 99.1862C81.6121 102.168 84.4378 102.276 85.9354 102.694C88.4306 103.391 90.8426 102.781 93.0841 102.531C99.5222 101.814 101.9 99.0592 102.983 97.8042L102.993 97.7922C103.773 96.8885 104.244 95.9589 104.618 95.8728C107.147 95.2912 106.153 102.431 107.445 103.94C108.356 105.004 110.062 105.272 114.626 106.063C117.166 106.503 118.886 105.943 120.992 105.239C129.262 102.476 132.436 102.117 134.771 101.162C136.59 99.965 138.517 98.0481 139.93 96.0125C140.519 95.1302 140.848 94.5536 141.687 93.2108M90.2685 104.443C89.4399 105.688 86.7941 108.991 85.1142 111.633C83.433 114.277 82.5359 116.663 80.9971 119.409C80.0613 121.079 79.955 123.403 79.5781 126.432C78.6775 133.669 80.2819 135.306 80.8211 135.971C81.8749 137.272 85.0968 136.722 87.7213 136.85C90.623 136.992 95.2356 134.575 97.5008 132.738L97.6229 132.639C98.9025 131.601 100.247 130.51 102.891 128.589C112.885 121.329 113.062 119.01 113.563 117.594C114.284 115.555 115.553 112.45 116.764 110.149C117.056 109.69 117.385 109.195 117.596 108.776C117.807 108.357 117.89 108.027 117.974 107.688M102.249 107.688C99.6761 110.343 98.0112 112.505 96.5972 114.42C95.2378 116.26 93.6881 117.667 92.2292 118.874C91.8535 119.167 91.4417 119.414 91.0648 119.706C90.6879 119.998 90.3584 120.328 89.2701 120.917M98.5054 45.5366C97.4247 51.1901 96.5985 53.8384 96.3826 57.1743C96.3436 57.7762 96.7532 58.0118 96.9629 57.9743C98.1546 57.7615 97.9214 55.6106 98.0474 51.9576C98.0886 51.1152 98.171 50.7034 98.2134 50.1618C98.2558 49.6201 98.2558 48.9612 98.2558 47.783M127.21 49.5303C127.045 50.1917 126.381 52.181 125.3 54.1816C123.973 56.638 123.965 58.8404 123.758 60.4641C123.689 61.0018 123.715 61.7458 123.88 61.9218C125.439 63.5865 127.374 57.857 128.246 54.702C128.538 53.8634 128.867 53.2044 129.037 52.5355C129.207 51.8665 129.207 51.2076 128.707 50.5287M108.49 77.2362C108.407 77.2362 108.325 77.2362 108.2 77.4009C108.075 77.5656 107.91 77.8951 107.491 78.9834M29.2447 110.302C28.0738 107.674 27.6293 104.148 28.2125 102.61C28.4953 101.864 29.3767 101.507 30.1866 101.283C30.9965 101.058 31.868 101.058 32.6075 101.276C33.347 101.494 33.928 101.93 35.407 103.259M37.1676 105.02C37.1676 104.729 37.1676 103.417 37.3855 101.439C37.478 100.599 38.0391 100.187 38.5541 99.9622C39.6501 99.7377 40.8298 99.4472 41.7827 99.2975C42.1547 99.4384 42.2999 100.019 43.3299 101.498M45.5307 102.379C44.0738 98.4436 41.4284 91.3922 40.6185 88.6698C39.7659 85.8041 38.1976 84.0459 38.1932 82.7276C38.188 81.1796 42.137 81.2508 45.4339 81.8319C50.403 82.7076 50.8039 87.4043 52.7142 91.1391C53.0135 92.1009 53.0135 92.8271 53.0861 93.5644C53.1587 94.3017 53.304 95.0279 53.8938 96.6566C54.334 95.6398 55.2055 90.0893 56.3103 86.5416C56.7579 85.1042 58.1458 84.1911 59.3848 83.3108C63.515 80.3764 67.6709 83.4517 69.9532 84.4728C73.343 85.9896 70.039 93.417 69.2291 96.5707C67.9834 99.8742 66.8082 103.101 65.9279 105.451C65.7782 106.041 65.7782 106.622 65.338 107.22M31.0053 113.383C30.4199 114.549 30.125 117.186 30.7082 119.536C31.3756 122.226 33.928 123.938 36.2785 125.408C38.8344 127.007 40.5304 129.22 45.3546 130.399C51.7185 131.956 56.5304 130.113 57.4811 129.308C59.8864 127.27 62.9788 125.126 65.2566 124.609C68.052 123.974 71.1922 121.605 73.2544 119.409C75.5534 116.96 74.872 113.691 74.4384 111.263C74.3339 110.678 73.71 110.31 73.195 110.086C72.099 109.861 70.9193 109.716 69.7485 109.423L67.979 108.981" stroke="black" stroke-linecap="round"/>
<path d="M113.184 110.139C112.138 112.18 110.074 115.993 109.626 116.364C108.947 116.925 108.809 114.312 108.462 113.441C108.373 113.218 108.435 112.941 108.409 112.989C107.48 114.707 107.064 117.627 105.776 120.129C105.485 120.693 105.377 120.952 105.218 121.138C105.06 121.325 104.851 121.43 104.743 121.379C102.411 120.282 105.744 113.422 105.927 111.911C105.964 111.611 106.111 111.358 106.034 111.302C105.958 111.246 105.696 111.402 105.536 111.588C104.87 112.355 104.376 113.878 103.137 115.776C100.874 119.244 100.206 122.167 99.7035 123.327C99.2893 124.283 98.4647 125.122 97.8307 126.519C97.6733 126.865 97.5148 127.126 97.5124 126.842C97.4797 122.938 98.6198 118.849 98.5676 118.609C98.3 117.381 97.6193 120.531 95.5684 123.686C93.55 126.792 92.6072 128.443 91.8417 129.161C91.6753 129.317 91.499 129.45 91.4183 129.635C91.3375 129.82 91.3375 130.029 91.3636 129.98C91.7927 129.174 91.7586 127.826 92.0753 126.371C92.1604 125.98 92.1291 125.505 92.0246 125.367C91.2737 124.377 89.8146 128.285 88.0454 129.66C87.5255 130.064 87.223 130.401 87.0378 130.534C86.2654 131.089 88.0636 128.193 88.0929 126.872C88.0991 126.594 87.8578 126.448 87.6987 126.472C86.5731 126.64 85.6985 128.604 84.8745 128.847C84.5736 128.935 85.1634 126.255 85.1111 123.193C85.0945 122.22 84.9544 122.43 84.8484 122.747C84.6056 123.471 84.4257 124.121 84.2673 124.333C83.8581 124.882 84.6346 122.389 84.8982 121.225C85.028 120.651 85.3739 120.22 85.5315 119.982C85.5917 119.891 85.7935 120.109 85.9787 120.112C87.0395 120.125 87.7945 117.276 88.408 116.235C88.4262 116.204 88.3834 116.519 88.2782 116.732C88.1729 116.945 88.0162 117.102 87.8571 117.052C87.434 116.919 87.3797 115.949 87.432 115.001C87.5184 113.432 88.6446 112.254 88.9082 111.725C89.1906 111.159 89.2795 113.039 89.4101 113.33C89.4732 113.47 89.8019 113.359 90.0148 113.254C90.8186 112.856 91.385 111.779 91.6272 110.54C92.0178 108.543 92.8652 106.978 93.261 106.526C93.6289 106.107 93.2911 107.867 93.2373 108.263C93.2179 108.405 93.4969 108.398 93.6829 108.267C94.5709 107.643 95.2383 106.818 96.0053 106.55C96.1647 106.495 96.1913 106.966 96.3227 107.05C97.0099 107.484 97.8758 106.026 98.6436 105.392C99.0331 105.07 99.5143 104.706 100.015 104.363C100.415 104.089 100.835 104.28 101.124 104.387C101.491 104.522 101.678 103.65 101.995 103.517C102.103 103.541 102.103 103.75 102.155 103.753C102.207 103.756 102.312 103.547 102.578 102.857" stroke="#FFACFC" stroke-linecap="round"/>
</svg>
